<svg width="324" height="52" viewBox="0 0 324 52" fill="none" xmlns="http://www.w3.org/2000/svg">
<path d="M0.336 2.216H11.216L17.616 31.784L16.208 31.144L27.664 9.32L30.416 22.056L13.264 51.176L0.336 2.216ZM23.952 2.216H33.168L41.232 30.824L39.632 30.568L51.728 2.216H61.712L37.52 51.048L23.952 2.216ZM93.984 14.12C92.32 13.0107 90.592 12.0933 88.8 11.368C87.0507 10.6 85.3653 10.1733 83.744 10.088C82.72 10.0453 81.8027 10.1093 80.992 10.28C80.1813 10.408 79.456 10.664 78.816 11.048C78.2187 11.3893 77.728 11.8587 77.344 12.456C77.0027 13.0533 76.7893 13.7573 76.704 14.568C76.576 15.6773 76.8747 16.7013 77.6 17.64C78.368 18.536 79.392 19.368 80.672 20.136C81.9947 20.904 83.3813 21.608 84.832 22.248C86.5813 23.016 88.2453 23.976 89.824 25.128C91.4027 26.28 92.64 27.7947 93.536 29.672C94.432 31.5067 94.688 33.9173 94.304 36.904C94.0907 38.696 93.536 40.3813 92.64 41.96C91.744 43.5387 90.528 44.9253 88.992 46.12C87.4987 47.272 85.7067 48.1467 83.616 48.744C81.5253 49.3413 79.1573 49.5547 76.512 49.384C74.72 49.256 72.928 48.9573 71.136 48.488C69.344 48.0187 67.5947 47.3787 65.888 46.568C64.1813 45.7147 62.56 44.648 61.024 43.368L66.016 36.392C66.9973 37.2453 68.1067 38.0347 69.344 38.76C70.5813 39.4427 71.84 39.9973 73.12 40.424C74.4 40.8507 75.5947 41.1067 76.704 41.192C77.8133 41.2347 78.944 41.1493 80.096 40.936C81.248 40.68 82.2507 40.1893 83.104 39.464C83.9573 38.7387 84.4693 37.6933 84.64 36.328C84.768 35.3893 84.5547 34.5147 84 33.704C83.4453 32.8933 82.6987 32.1467 81.76 31.464C80.8213 30.7813 79.7547 30.1627 78.56 29.608C77.1947 28.968 75.7867 28.2427 74.336 27.432C72.8853 26.6213 71.5413 25.6613 70.304 24.552C69.1093 23.4427 68.192 22.0773 67.552 20.456C66.912 18.8347 66.7413 16.9147 67.04 14.696C67.3813 11.9653 68.2773 9.64 69.728 7.72C71.1787 5.75733 73.0773 4.28533 75.424 3.304C77.7707 2.28 80.416 1.78933 83.36 1.832C85.8773 1.96 88.032 2.30133 89.824 2.856C91.6587 3.368 93.2587 4.008 94.624 4.776C95.9893 5.544 97.248 6.376 98.4 7.272L93.984 14.12ZM105.499 49H96.3465L123.611 0.0399971H124.123L139.355 49H128.603L119.259 14.568L126.555 9.96L105.499 49ZM112.987 31.976H127.131L129.435 39.784H109.147L112.987 31.976Z" fill="white"/>
<path d="M176.109 14.12C174.445 13.0107 172.717 12.0933 170.925 11.368C169.176 10.6 167.49 10.1733 165.869 10.088C164.845 10.0453 163.928 10.1093 163.117 10.28C162.306 10.408 161.581 10.664 160.941 11.048C160.344 11.3893 159.853 11.8587 159.469 12.456C159.128 13.0533 158.914 13.7573 158.829 14.568C158.701 15.6773 159 16.7013 159.725 17.64C160.493 18.536 161.517 19.368 162.797 20.136C164.12 20.904 165.506 21.608 166.957 22.248C168.706 23.016 170.37 23.976 171.949 25.128C173.528 26.28 174.765 27.7947 175.661 29.672C176.557 31.5067 176.813 33.9173 176.429 36.904C176.216 38.696 175.661 40.3813 174.765 41.96C173.869 43.5387 172.653 44.9253 171.117 46.12C169.624 47.272 167.832 48.1467 165.741 48.744C163.65 49.3413 161.282 49.5547 158.637 49.384C156.845 49.256 155.053 48.9573 153.261 48.488C151.469 48.0187 149.72 47.3787 148.013 46.568C146.306 45.7147 144.685 44.648 143.149 43.368L148.141 36.392C149.122 37.2453 150.232 38.0347 151.469 38.76C152.706 39.4427 153.965 39.9973 155.245 40.424C156.525 40.8507 157.72 41.1067 158.829 41.192C159.938 41.2347 161.069 41.1493 162.221 40.936C163.373 40.68 164.376 40.1893 165.229 39.464C166.082 38.7387 166.594 37.6933 166.765 36.328C166.893 35.3893 166.68 34.5147 166.125 33.704C165.57 32.8933 164.824 32.1467 163.885 31.464C162.946 30.7813 161.88 30.1627 160.685 29.608C159.32 28.968 157.912 28.2427 156.461 27.432C155.01 26.6213 153.666 25.6613 152.429 24.552C151.234 23.4427 150.317 22.0773 149.677 20.456C149.037 18.8347 148.866 16.9147 149.165 14.696C149.506 11.9653 150.402 9.64 151.853 7.72C153.304 5.75733 155.202 4.28533 157.549 3.304C159.896 2.28 162.541 1.78933 165.485 1.832C168.002 1.96 170.157 2.30133 171.949 2.856C173.784 3.368 175.384 4.008 176.749 4.776C178.114 5.544 179.373 6.376 180.525 7.272L176.109 14.12ZM197.544 49.768C195.88 49.768 194.152 49.512 192.36 49C190.568 48.4453 188.882 47.6133 187.304 46.504C185.768 45.3947 184.509 43.9653 183.528 42.216C182.589 40.4667 182.12 38.376 182.12 35.944C182.12 34.2373 182.397 32.4453 182.952 30.568C183.549 28.6907 184.488 26.9413 185.768 25.32C187.048 23.656 188.754 22.312 190.888 21.288C193.021 20.264 195.624 19.752 198.696 19.752C201.213 19.752 203.624 20.2853 205.928 21.352C208.274 22.376 210.194 23.912 211.688 25.96C213.224 28.008 213.992 30.5467 213.992 33.576C213.992 34.6427 213.842 35.9013 213.544 37.352C213.245 38.76 212.733 40.1893 212.007 41.64C211.282 43.0907 210.301 44.4347 209.064 45.672C207.826 46.8667 206.248 47.848 204.328 48.616C202.45 49.384 200.189 49.768 197.544 49.768ZM197.8 42.408C199.634 42.408 201.064 41.9387 202.088 41C203.112 40.0613 203.837 38.9307 204.264 37.608C204.69 36.2853 204.904 35.0693 204.904 33.96C204.904 32.4667 204.648 31.272 204.136 30.376C203.666 29.4373 203.069 28.7333 202.344 28.264C201.618 27.7947 200.893 27.4747 200.168 27.304C199.442 27.1333 198.845 27.048 198.376 27.048C196.626 27.048 195.218 27.5173 194.152 28.456C193.085 29.352 192.317 30.4613 191.848 31.784C191.378 33.1067 191.144 34.344 191.144 35.496C191.144 37.416 191.528 38.8667 192.296 39.848C193.106 40.8293 194.024 41.512 195.048 41.896C196.114 42.2373 197.032 42.408 197.8 42.408ZM228.151 50.344C225.634 50.344 223.607 49.576 222.071 48.04C220.578 46.4613 219.938 44.4347 220.151 41.96L222.711 21.032H231.671L229.495 38.632C229.452 39.8693 229.644 40.872 230.071 41.64C230.54 42.3653 231.436 42.728 232.759 42.728C234.082 42.728 235.276 42.28 236.343 41.384C237.452 40.488 238.37 39.272 239.095 37.736C239.82 36.1573 240.29 34.3867 240.503 32.424L241.911 21.032H250.871L247.415 49H239.287L239.223 43.432L239.415 44.456C238.647 45.608 237.687 46.632 236.535 47.528C235.426 48.424 234.167 49.1067 232.759 49.576C231.351 50.088 229.815 50.344 228.151 50.344ZM263.35 28.328C261.814 28.328 260.534 27.7733 259.51 26.664C258.529 25.5547 258.145 24.0613 258.358 22.184L258.806 18.344H265.526L265.462 19.24C265.334 20.136 265.419 20.6693 265.718 20.84C266.017 20.968 266.571 21.032 267.382 21.032H285.11L266.87 43.56L265.462 41.704H282.422L281.526 49H253.174L271.926 25.768L272.95 28.328H263.35ZM301.012 49.64C299.177 49.6827 297.385 49.1707 295.635 48.104C293.886 47.0373 292.436 45.48 291.284 43.432C290.174 41.384 289.62 38.9093 289.62 36.008C289.62 33.9173 290.004 31.912 290.772 29.992C291.54 28.0293 292.628 26.28 294.036 24.744C295.444 23.1653 297.108 21.928 299.028 21.032C300.948 20.0933 303.06 19.624 305.364 19.624C307.241 19.624 308.756 19.8373 309.908 20.264C311.102 20.6907 312.062 21.2453 312.788 21.928C313.513 22.568 314.132 23.272 314.644 24.04L314.068 25.384L315.476 21.032H323.796L320.404 49H311.444L312.148 42.92L312.66 44.84C312.574 44.84 312.276 45.096 311.764 45.608C311.252 46.0773 310.505 46.632 309.524 47.272C308.585 47.912 307.39 48.488 305.94 49C304.532 49.4693 302.889 49.6827 301.012 49.64ZM306.068 42.472C306.921 42.472 307.732 42.3227 308.5 42.024C309.31 41.6827 310.078 41.2133 310.804 40.616C311.529 39.976 312.169 39.1867 312.724 38.248L313.556 31.4C313.342 30.4613 312.937 29.672 312.34 29.032C311.742 28.3493 310.996 27.8373 310.1 27.496C309.204 27.112 308.18 26.92 307.028 26.92C305.577 26.92 304.34 27.176 303.316 27.688C302.292 28.2 301.438 28.8613 300.756 29.672C300.116 30.4827 299.646 31.3573 299.348 32.296C299.049 33.192 298.9 34.0667 298.9 34.92C298.9 36.456 299.198 37.8 299.796 38.952C300.393 40.0613 301.225 40.936 302.292 41.576C303.401 42.1733 304.66 42.472 306.068 42.472Z" fill="#FAB105"/>
</svg>
